<svg width="6" height="20" viewBox="0 0 6 20" fill="none" xmlns="http://www.w3.org/2000/svg">
<path d="M2.65137 18.3105C2.54199 18.5566 2.38135 18.7549 2.16943 18.9053C1.96436 19.0625 1.73193 19.1411 1.47217 19.1411C1.0415 19.1411 0.689453 19.0044 0.416016 18.731C0.149414 18.4575 0.0161133 18.1294 0.0161133 17.7466C0.0161133 17.5347 0.0639648 17.3091 0.159668 17.0698C0.255371 16.8237 0.347656 16.5947 0.436523 16.3828L3.42041 9.16406V10.3638L0.436523 3.14502C0.347656 2.93994 0.255371 2.71436 0.159668 2.46826C0.0639648 2.21533 0.0161133 1.98633 0.0161133 1.78125C0.0161133 1.3916 0.149414 1.06348 0.416016 0.796875C0.689453 0.523438 1.0415 0.386719 1.47217 0.386719C1.73193 0.386719 1.96436 0.465332 2.16943 0.622559C2.38135 0.772949 2.54199 0.971191 2.65137 1.21729L5.51221 8.07715C5.63525 8.37109 5.74463 8.65479 5.84033 8.92822C5.93604 9.20166 5.98389 9.47852 5.98389 9.75879C5.98389 10.0391 5.93604 10.3159 5.84033 10.5894C5.74463 10.856 5.63525 11.1396 5.51221 11.4404L2.65137 18.3105Z" fill="#1D1E1F" fill-opacity="0.5"/>
</svg>
