<svg width="12" height="20" viewBox="0 0 12 20" fill="none" xmlns="http://www.w3.org/2000/svg">
<path d="M0.63208 10C0.63208 10.2051 0.673096 10.3999 0.755127 10.5845C0.830322 10.7622 0.953369 10.9331 1.12427 11.0972L9.00952 18.8184C9.27612 19.0781 9.60083 19.208 9.98364 19.208C10.2297 19.208 10.4587 19.1465 10.6707 19.0234C10.8826 18.9004 11.0535 18.7363 11.1833 18.5312C11.3064 18.3262 11.3679 18.0938 11.3679 17.834C11.3679 17.458 11.2244 17.123 10.9373 16.8291L3.91333 10L10.9373 3.1709C11.2244 2.88379 11.3679 2.54883 11.3679 2.16602C11.3679 1.91309 11.3064 1.68408 11.1833 1.479C11.0535 1.26709 10.8826 1.09961 10.6707 0.976562C10.4587 0.853516 10.2297 0.791992 9.98364 0.791992C9.60083 0.791992 9.27612 0.921875 9.00952 1.18164L1.12427 8.90283C0.960205 9.06689 0.837158 9.23779 0.755127 9.41553C0.673096 9.59326 0.63208 9.78809 0.63208 10Z" fill="white" fill-opacity="0.55"/>
</svg>
