<svg width="12" height="20" viewBox="0 0 12 20" fill="none" xmlns="http://www.w3.org/2000/svg">
<path d="M11.3679 10C11.3679 10.2051 11.3269 10.3999 11.2449 10.5845C11.1697 10.7622 11.0466 10.9331 10.8757 11.0972L2.99048 18.8184C2.72388 19.0781 2.39917 19.208 2.01636 19.208C1.77026 19.208 1.54126 19.1465 1.32935 19.0234C1.11743 18.9004 0.946533 18.7363 0.81665 18.5312C0.693604 18.3262 0.63208 18.0938 0.63208 17.834C0.63208 17.458 0.775635 17.123 1.06274 16.8291L8.08667 10L1.06274 3.1709C0.775635 2.88379 0.63208 2.54883 0.63208 2.16602C0.63208 1.91309 0.693604 1.68408 0.81665 1.479C0.946533 1.26709 1.11743 1.09961 1.32935 0.976562C1.54126 0.853516 1.77026 0.791992 2.01636 0.791992C2.39917 0.791992 2.72388 0.921875 2.99048 1.18164L10.8757 8.90283C11.0398 9.06689 11.1628 9.23779 11.2449 9.41553C11.3269 9.59326 11.3679 9.78809 11.3679 10Z" fill="white" fill-opacity="0.55"/>
</svg>
