<svg width="6" height="20" viewBox="0 0 6 20" fill="none" xmlns="http://www.w3.org/2000/svg">
<path d="M3.34863 18.5466C3.45801 18.7927 3.61865 18.991 3.83057 19.1414C4.03564 19.2986 4.26807 19.3772 4.52783 19.3772C4.9585 19.3772 5.31055 19.2405 5.58398 18.967C5.85059 18.6936 5.98389 18.3655 5.98389 17.9827C5.98389 17.7708 5.93604 17.5452 5.84033 17.3059C5.74463 17.0598 5.65234 16.8308 5.56348 16.6189L2.57959 9.40015V10.5999L5.56348 3.3811C5.65234 3.17603 5.74463 2.95044 5.84033 2.70435C5.93604 2.45142 5.98389 2.22241 5.98389 2.01733C5.98389 1.62769 5.85059 1.29956 5.58398 1.03296C5.31055 0.759521 4.9585 0.622803 4.52783 0.622803C4.26807 0.622803 4.03564 0.701416 3.83057 0.858643C3.61865 1.00903 3.45801 1.20728 3.34863 1.45337L0.487793 8.31323C0.364746 8.60718 0.255371 8.89087 0.159668 9.16431C0.0639648 9.43774 0.0161133 9.7146 0.0161133 9.99487C0.0161133 10.2751 0.0639648 10.552 0.159668 10.8254C0.255371 11.092 0.364746 11.3757 0.487793 11.6765L3.34863 18.5466Z" fill="white" fill-opacity="0.55"/>
</svg>
