<svg width="12" height="19" viewBox="0 0 12 19" fill="none" xmlns="http://www.w3.org/2000/svg">
    <path d="M0.63208 9.29785C0.63208 9.50293 0.673096 9.69775 0.755127 9.88232C0.830322 10.0601 0.953369 10.231 1.12427 10.395L9.00952 18.1162C9.27612 18.376 9.60083 18.5059 9.98364 18.5059C10.2297 18.5059 10.4587 18.4443 10.6707 18.3213C10.8826 18.1982 11.0535 18.0342 11.1833 17.8291C11.3064 17.624 11.3679 17.3916 11.3679 17.1318C11.3679 16.7559 11.2244 16.4209 10.9373 16.127L3.91333 9.29785L10.9373 2.46875C11.2244 2.18164 11.3679 1.84668 11.3679 1.46387C11.3679 1.21094 11.3064 0.981934 11.1833 0.776855C11.0535 0.564941 10.8826 0.397461 10.6707 0.274414C10.4587 0.151367 10.2297 0.0898438 9.98364 0.0898438C9.60083 0.0898438 9.27612 0.219727 9.00952 0.479492L1.12427 8.20068C0.960205 8.36475 0.837158 8.53564 0.755127 8.71338C0.673096 8.89111 0.63208 9.08594 0.63208 9.29785Z" fill="#1D1E1F" fill-opacity="0.5"/>
</svg>
