<svg width="15" height="18" viewBox="0 0 15 18" fill="none" xmlns="http://www.w3.org/2000/svg">
<path d="M14.6592 10.6062C14.6592 11.6189 14.4683 12.568 14.0864 13.4534C13.7101 14.3388 13.1844 15.1191 12.5093 15.7942C11.8397 16.4638 11.0622 16.9867 10.1768 17.363C9.29134 17.7449 8.34229 17.9358 7.32959 17.9358C6.31689 17.9358 5.36784 17.7449 4.48242 17.363C3.59701 16.9867 2.81673 16.4638 2.1416 15.7942C1.47201 15.1191 0.946289 14.3388 0.564453 13.4534C0.188151 12.568 0 11.6189 0 10.6062C0 10.4014 0.0636393 10.2354 0.190918 10.1082C0.32373 9.97534 0.489746 9.90894 0.688965 9.90894C0.888184 9.90894 1.0459 9.97534 1.16211 10.1082C1.27832 10.2354 1.33643 10.3987 1.33643 10.5979C1.33643 11.428 1.49137 12.2055 1.80127 12.9304C2.11117 13.6554 2.54004 14.2917 3.08789 14.8396C3.64128 15.3875 4.28044 15.8163 5.00537 16.1262C5.73031 16.4361 6.50505 16.5911 7.32959 16.5911C8.15967 16.5911 8.93717 16.4361 9.66211 16.1262C10.387 15.8163 11.0234 15.3875 11.5713 14.8396C12.1191 14.2917 12.548 13.6554 12.8579 12.9304C13.1678 12.2055 13.3228 11.428 13.3228 10.5979C13.3228 9.77336 13.1678 8.99862 12.8579 8.27368C12.548 7.54875 12.1191 6.91235 11.5713 6.3645C11.0234 5.81112 10.387 5.37948 9.66211 5.06958C8.93717 4.75968 8.15967 4.60474 7.32959 4.60474C7.01416 4.60474 6.7098 4.61857 6.4165 4.64624C6.12874 4.66838 5.86312 4.70711 5.61963 4.76245L8.10156 7.21948C8.16797 7.28589 8.21501 7.3606 8.24268 7.4436C8.27588 7.52108 8.29248 7.60409 8.29248 7.69263C8.29248 7.88078 8.22884 8.03849 8.10156 8.16577C7.97428 8.29305 7.81934 8.35669 7.63672 8.35669C7.44857 8.35669 7.28809 8.29305 7.15527 8.16577L3.73535 4.72925C3.66341 4.65731 3.61084 4.57983 3.57764 4.49683C3.54443 4.41382 3.52783 4.32528 3.52783 4.2312C3.52783 4.04305 3.59701 3.87703 3.73535 3.73315L7.15527 0.263428C7.27702 0.130615 7.4375 0.064209 7.63672 0.064209C7.82487 0.064209 7.97982 0.130615 8.10156 0.263428C8.22884 0.390706 8.29248 0.551188 8.29248 0.744873C8.29248 0.827881 8.27588 0.910889 8.24268 0.993896C8.21501 1.0769 8.17074 1.15161 8.10986 1.21802L5.90186 3.41772C6.11768 3.37345 6.34456 3.34025 6.58252 3.31812C6.82601 3.29045 7.07503 3.27661 7.32959 3.27661C8.34229 3.27661 9.29134 3.46753 10.1768 3.84937C11.0622 4.22567 11.8397 4.75138 12.5093 5.42651C13.1844 6.09611 13.7101 6.87362 14.0864 7.75903C14.4683 8.64445 14.6592 9.59351 14.6592 10.6062Z" fill="#0A84FF"/>
</svg>
