<svg width="12" height="19" viewBox="0 0 12 19" fill="none" xmlns="http://www.w3.org/2000/svg">
<path d="M11.3679 9.29785C11.3679 9.50293 11.3269 9.69775 11.2449 9.88232C11.1697 10.0601 11.0466 10.231 10.8757 10.395L2.99048 18.1162C2.72388 18.376 2.39917 18.5059 2.01636 18.5059C1.77026 18.5059 1.54126 18.4443 1.32935 18.3213C1.11743 18.1982 0.946533 18.0342 0.81665 17.8291C0.693604 17.624 0.63208 17.3916 0.63208 17.1318C0.63208 16.7559 0.775635 16.4209 1.06274 16.127L8.08667 9.29785L1.06274 2.46875C0.775635 2.18164 0.63208 1.84668 0.63208 1.46387C0.63208 1.21094 0.693604 0.981934 0.81665 0.776855C0.946533 0.564941 1.11743 0.397461 1.32935 0.274414C1.54126 0.151367 1.77026 0.0898438 2.01636 0.0898438C2.39917 0.0898438 2.72388 0.219727 2.99048 0.479492L10.8757 8.20068C11.0398 8.36475 11.1628 8.53564 11.2449 8.71338C11.3269 8.89111 11.3679 9.08594 11.3679 9.29785Z" fill="#1D1E1F" fill-opacity="0.5"/>
</svg>
